<?xml version="1.0" encoding="UTF-8"?>
<svg version="1.1" viewBox="0 0 2048 666" width="697" height="227" xmlns="http://www.w3.org/2000/svg">
<path transform="translate(0)" d="m0 0h2048v666h-2048z"/>
<path transform="translate(240,14)" d="m0 0h9l17 5 11 6 11 9 7 7 11 15 9 16 5 11 4 13 2 18v21l-2 20-7 31-11 38-2 11v15l3 11 6 8 7 3h7l6-3h2l6-12 5-15 1-5v-13l-3-18 4-1 8 7 7 10 8 16 5 18 2 15v28l-4 33-6 29-8 27-13 41-5 20-1 13 3 9 5 6 4 2 6-1 6-5 7-13 6-22 4-25 1-13 1-48h4l6 7 7 14 5 19 2 13 1 18-1 18-5 25-6 27v11l3 6 6 3 6-1 5-6 5-12 1-7v-14l-4-17v-6l4 2 9 10 9 15 5 12 2 11v22l-5 23-7 17-8 14-10 13-14 14-13 10-19 12-26 13-25 10-3-1 5-5 20-12 11-9 12-11 12-16 5-12 3-13-1-16-4-14-7-17-6-9-4-2 5 18v9l-3 6-7 7-4 2h-7l-7-3-8-6-9-10-10-15-12-23-8-21-4-13-4-19-1-10v-22l3-23 7-27 4-12h-5l-7 8-9 15-8 17-7 21-2 8v20l3 21 6 27 1 14-4 13-5 7-3 1h-8l-6-4-6-7-4-13v-19l-2-10-4-8-4-5-6-4-4-1 4 6 1 11-3 14-6 16-9 20-11 23-7 19-4 15-1 8v15l4 18 5 10 6 7 11 9-2 1-15-6-14-8-22-15-13-10-10-10-10-13-11-17-5-11-4-13-4-18-1-10v-31l2-15 5-22 10-24 15-25 12-18 15-25 7-15 5-17 1-7-1-19-3-14-3-8v-4l8 1 11 7 7 6 10 14 6 15 4 18v53l2 9 3 1h9l2-4 2-3 2-10 1-19-4-28-8-41-2-17v-39l7-22 11-21 14-21 13-18 12-18 8-15 4-14 1-6v-17l-2-12-7-21-8-11-8-8-10-5-9-3v-3z" fill="#9E0797"/>
<path transform="translate(1726,201)" d="m0 0h20l14 1 2 7 6 26 13 35 6 18 6 16 12 36 4 10 4 1 4-40 1-16v-90l1-2 15-2h18l10 1 6 3 1 3v20l-2 34-3 41-1 44v160l-5 2-21 2-10 3h-5l-3-5-7-16-16-43-13-35-10-28-7-9-1 136-2 1-40-1-2-1-1-44-1-79-3-117-1-63 1-7z" fill="#FFF7EE"/>
<path transform="translate(1091,210)" d="m0 0h30l30 1 21 7 9 7 9 12 8 13 9 19 2 10 1 20v21l-6 11-10 13-9 9-3 1 2 5 4 6 9 10 7 8 9 12 1 3 1 46v20l-1 4-5 3-8 19-8 10-8 7-14 7-7 2h-42l-8 2-9 1h-11l-4-6-3-9v-285z" fill="#FFF7EE"/>
<path transform="translate(1639,195)" d="m0 0h14l14 3 16 8 8 8 6 12 5 17v23l1 24 2 130-2 31-5 1-2 9-6 16-13 3-7 3-9 6-9 3-8 1-17-3-12-5-10-4-10-1-5-12-2-4-4-4-4-13-1-43-3-80v-14l1-19 3-17-1-14v-11l5-17 9-17 11-8 15-8 11-3z" fill="#FFF7EE"/>
<path transform="translate(973,190)" d="m0 0h51l1 1 3 24 4 24 5 44 3 15 4 28 7 48 7 38 3 29 5 19 2 27 4 10v6l-5 5-11 1-9-3-18-2-3-12-8-37-5-15-1-1-8-1h-12l-13 3-4 2-2 7-1 28v30l-1 1h-50v-9l5-33 7-35 4-18 3-35 7-46 10-52 9-50 6-37z" fill="#FFF7EE"/>
<path transform="translate(810,194)" d="m0 0h23l20 2 19 1 15 4 10 5 8 7 4 7 3 16 1 14v99l-2 22-4 8-8 9-13 8-8 3h-30l-1 4-1 18v81l-2 5-8 4-16-1-11-3-4-5v-17l1-18v-12l-1-4v-54l1-11v-27l-1-17-1-54-2-23v-44l3-25z" fill="#FFF7EE"/>
<path transform="translate(1499,211)" d="m0 0h15l1 115 1 48 1 24v39l1 17 1 8 13-1 8-2h8l10 3 3 4 1 3v21l-3 14-1 2h-14l-70-4-3-5-4-48v-82l1-15v-24l-2-16-1-7v-8l1-2v-48l-1-33 16-2z" fill="#FFF7EE"/>
<path transform="translate(1382,211)" d="m0 0h15l2 2 1 136 1 80 1 27 1 5 17-1h21l4 6 1 4v21l-2 10-4 6-43-3-39-2-2-2-3-35-1-15-1-83 2-19v-16l-3-26v-92l4-1z" fill="#FFF7EE"/>
<path transform="translate(1246,205)" d="m0 0h48l30 1 3 21v7l-3 8-2 1h-30l-7 3-5 6v60l1 13 5 5 4 2 32 1 1 7v18l-2 7-8 2-22 2-7-1-4 4v76l2 20 2 9h28l13 1 2 7v14l-3 6-7 1-24 1-28 2h-20l-2-13v-286z" fill="#FFF7EE"/>
<path transform="translate(60,110)" d="m0 0h15l17 3 1 3-10 2-7 5-5 9v10l4 8 4 5 16 8 17 5 38 8 10 3 9 6 5 5 3 4 1 3v14l-5 8-9 8-9 4-25 6-20 4-9 4-3 3 1 5 7 6 11 8 10 8 4 5 3 8-1 10-4 11-9 14-6 7h-2l1-6 5-10 1-3v-13l-4-9-7-8-14-9-18-10-10-9-4-8v-8l5-7 9-6 10-3 46-5 11-3 5-3 1-9-7-3-14-2-27-2-17-3-21-6-11-6-11-10-6-9-2-6v-21l5-10 8-7 10-5z" fill="#9E0796"/>
<path transform="translate(683,315)" d="m0 0h26l12 3 10 5 8 7 5 10 2 14-1 13-6 16-6 8-8 8-13 7-10 2h-12l-15-4-13-7-7-8-4-7-1-4v-23l3-16 6-10 7-7 9-5z" fill="#86106F"/>
<path transform="translate(1955,315)" d="m0 0h27l13 4 10 5 7 7 4 8 1 6v21l-4 11-7 11-11 12-9 5-5 2-19 1-14-2-11-7-8-9-5-9-1-4v-32l2-8 9-11 8-7 7-3z" fill="#860F6F"/>
<path transform="translate(440,74)" d="m0 0v3l-6 7-6 12-1 9 4 9 8 10 11 9 19 13 12 9 10 9 8 9 8 15 3 12v10l-3 14-7 13-9 10-9 6-10 3-8 1h-14l-22-3h-9l-5 3-3 5 1 8 4 15v22l-4 10-6 8-10 6-3-1 7-8 3-5 1-4v-12l-3-13-13-28-2-6v-6l4-8 5-4 5-3 4-1h17l21 2h8l10-2 6-4 6-7 3-5 2-8v-10l-3-11-4-8-8-10-9-10-13-12-12-13-7-10-3-7v-13l4-10 6-10 5-6z" fill="#860F6F"/>
<path transform="translate(1639,238)" d="m0 0h6l6 4 7 8 3 6 1 8v146l-3 16-6 12-6 4h-11l-3-5-3-9-3-53-2-52v-70l4-8 6-5z" fill="#050004"/>
<path transform="translate(851,237)" d="m0 0h7l9 4 5 6 4 10 3 22 1 14v44l-8 18-5 7-5 2-10-1-4-2-2-8-1-13v-94l3-7z" fill="#040003"/>
<path transform="translate(1137,379)" d="m0 0 5 1 8 6 11 11 4 8 3 15v21l-4 17-5 10-8 9-7 2-9-1-3-1-1-2-2-36v-27l3-22 3-9z" fill="#060005"/>
<path transform="translate(219,467)" d="m0 0 2 4 2 7-3 7-4 7-5 11 1 3 2-2h3l1 2v9l-3 9-5 7-7 1 1 4 2 2v6l-2 6-4 23v26l4 14 6 12 7 10 4 5v2l-6-1-8-6-6-4-4-4-3-1-2 2-1 2-6-8-5-14-2-11v-15l3-16 7-21 7-16 14-29 6-15 3-11z" fill="#090009"/>
<path transform="translate(1139,258)" d="m0 0 8 2 6 4 10 7 3 6 4 18v12l-4 11-7 12-4 3-13 2-7-2-4-5-1-2v-10l2-7v-14l-3-11-1-9 2-9 3-5z" fill="#060005"/>
<path transform="translate(143,284)" d="m0 0 3 1 1 2v17l-3 27 2 5-1 5v12l-1 3 5-1 4-6 1 2-13 22-17 26-9 15-3-3-4-1-1-2 1-14h-6l-3 2h-5l1-4 7-7 9-11 7-11 10-21 6-12 6-20 2-13z" fill="#090009"/>
<path transform="translate(331,73)" d="m0 0 4 4 8 16 3 12v29l-5 19-3 8h-3v-14l-2-3-4 2-4 20-2 5-1 12-2 8-1 2-1 8-5 17h-2l-2 13-1 5 2 16h5l7 6 1 8 8-1 6-4 4-4-1 5-5 7-8 4h-7l-8-4-6-8-3-11v-15l4-19 9-30 7-31 2-20v-30l2 4 5-4 2-4h2l-2-13-4-11z" fill="#090009"/>
<path transform="translate(997,319)" d="m0 0 3 3 4 16 8 48-1 10-2 2-5 1-22-1-1-1 1-11 3-14 2-25 6-20z" fill="#090108"/>
<path transform="translate(294,348)" d="m0 0 5 1-3 12-7 27-3 23v22l2 15 5 21 4 12-1 4-6-6-3-13-2-20h-2l-6-21-2-11 3-16-4 4-5 8-2-1-1-1-2 9-1 4 2 13v20l-1 5h-1l-3-21v-20l7-24 9-20 8-14 8-10z" fill="#0A010A"/>
<path transform="translate(212,269)" d="m0 0h1l2 17 10 53 2 16-1 19-2 10-5 7-2 1h-7l-5-5-1-6v-57l5 5 1 5 2 1 2 3 1-1 1-7 1-3-5-21-3-27z" fill="#090009"/>
<path transform="translate(514,208)" d="m0 0 3 4 1 4v13h-2l-1 6-4 8-9 11-11 8-15 5h-24l-23-3h-6l-5 4-1 2h-4l-1 3-2-6 1-7 5-5 3-2h9l22 3h14l12-2 10-4 10-9 6-9 5-11 1 4-2 7h2v2h2l2-5 2-3z" fill="#090009"/>
<path transform="translate(78,506)" d="m0 0h2l2 10 3 24 4 13 5 12 4 8 7 10 8 10 16 16 14 11 8 7v3l-6-2-13-10-17-12-16-10-10-9-8-16-3-10-1-7z" fill="#9D0794"/>
<path transform="translate(93,480)" d="m0 0h1l1 31 2 15 5 21 7 16 14 21 11 13 7 7 18 13 20 13 11 6-4 1-9-3-5-3-5-5-10-5-7-6-11-7-6-4v-2l-5-2-6-8v-4h-2l-4-8-4-4v-2h-2l-6-8-4-11-4-10-1-11h-2l-2-7v-6h-4l-1 8 1 15 3 8-1 4-4-11-3-19-2-20-2-1 2-1 7 1 4-1 1-1z" fill="#0A010A"/>
<path transform="translate(143,284)" d="m0 0 3 1 1 2v17l-3 20-5 19-5 12-7 13-12 14-9 9-7 5h-5l1-4 7-7 9-11 7-11 10-21 6-12 6-20 2-13z" fill="#9B0892"/>
<path transform="translate(1866,249)" d="m0 0h1v13l-3 41-1 44v160l-5 2-21 2-10 3h-5l-3-5-1-6 10 4h7l16-4 4-2 4-7 1-23v-28l-1-65v-42l1-28v-12l2-13 2-25z" fill="#FFFEFC"/>
<path transform="translate(202,538)" d="m0 0h2l1 7-4 22-1 6v26l4 14 6 12 7 10 4 5v2l-6-1-7-6-10-13-6-12-3-10v-20l8-30z" fill="#860F6F"/>
<path transform="translate(302,496)" d="m0 0 3 4 11 21 10 14 9 10 9 6 4 2-7 2-9-1-12-6-7-6-7-10-5-11-2-10h-2l-1-8h3l1-4z" fill="#0A010A"/>
<path transform="translate(331,73)" d="m0 0 4 4 8 16 3 12v29l-5 19-3 8h-2l1-14 1-10v-28l-3-18-5-14z" fill="#9E0796"/>
<path transform="translate(409,121)" d="m0 0h2l5 14 8 11 30 30 7 10 3 7 1 11-3 10-4 6-7 6-2 1h-6l5-4 7-6 3-7 1-10-2-9-6-10-9-11-22-22-7-10-3-7z" fill="#950A88"/>
<path transform="translate(78,506)" d="m0 0h2l2 10 3 24 4 13 5 12 4 8 7 10 8 10 15 15h-3l-17-17v-2h-2l-16-22-2-5-2-7-3-7-2-6-1 2 1 17 3 10 6 12 6 7 15 11 4 4-5-2-11-7-10-9-8-16-3-10-1-7z" fill="#86106F"/>
<path transform="translate(206,482)" d="m0 0 1 2-4 9-3 6-2 6-3 7-6 10-7 15-2 7-3 7-3 8-4 3 1-12 5-18 9-20 5-8h2l2-5 8-11z" fill="#850F6E"/>
<path transform="translate(296,381)" d="m0 0h4l-1 20v25l1 20h2l3 12v8l-5-5-4-10-3-15-2-24 4-28z" fill="#86106F"/>
<path transform="translate(378,273)" d="m0 0h1l1 45 1 9-1 1-2 17-4 8h-2l-2 9-2 12-3 9-5 13v9l-2-1-4 10-4 5 2-9 13-41 7-31 4-28 1-11z" fill="#0A010A"/>
<path transform="translate(655,333)" d="m0 0 1 2-3 8-2 12v23l3 8 8 10 16 8 12 3h12l12-3 11-6 7-7v3l-3 5-7 5-7 9-3 2h-7l-4-2-9-1-2-2v1l-10-1v-2l-7-1-10-6v-2l-4-2-1-3h-2l-6-10-2-7v-15l1-14 4-12z" fill="#0A010A"/>
<path transform="translate(925,477)" d="m0 0h1l1 5v15l3 5 3 1h14l12-1 11-5h1l1 11-1 1h-50v-9l3-22z" fill="#FFFEFC"/>
<path transform="translate(516,225)" d="m0 0 1 4-4 11-10 13-10 8-13 5-4 1h-24l-23-3h-6l-6 5h-2v-6l6-4 14 1 25 3h12l10-2 12-6 10-9 7-9z" fill="#97098B"/>
<path transform="translate(229,220)" d="m0 0h1v40l7 41 1 19-2-1-9-36-2-12v-32l3-15z" fill="#0A010A"/>
<path transform="translate(200,549)" d="m0 0 1 4-3 22-1 18 2 12 6 15 4 8v2l-4-2-6-8-5-10-4-16 1-15 4-17 4-12z" fill="#A00799"/>
<path transform="translate(347,426)" d="m0 0 2 2-2 15-1 5 1 6 3 1v2l5-3 5 2h2l1-5 1-2h2l-3 9-3 6-5 5-7 1-3-2-1 3-3-4-1-5 1-13z" fill="#090009"/>
<path transform="translate(398,483)" d="m0 0 2 4 2 7 4-1 4-2 2 3v8l-1 2 8-2-2 6-5 5-6 1-6-3-3-4-1-3v-11z" fill="#090009"/>
<path transform="translate(2015,370)" d="m0 0h1l1 11-4 12-6 7-10 6-9 3h-12l-6-1v-1l11-1 9-4 8-6 8-9 8-14z" fill="#0A010A"/>
<path transform="translate(117,440)" d="m0 0h1v8l-3 17-1 17v16l2 15-3-3-4-11-1-8v-22l6-21z" fill="#0A010A"/>
<path transform="translate(297,504)" d="m0 0 5 5 11 22 7 9 8 7 10 6v2l-9-2-10-6-6-5-7-10-5-11-4-15z" fill="#960A89"/>
<path transform="translate(1764,502)" d="m0 0h1v12l-2 1-40-1-1-1v-9l11 4 9 1 13-1 7-4z" fill="#FFFEFC"/>
<path transform="translate(217,454)" d="m0 0 2 2 1 11-3 14-6 16-9 20-11 23-7 19-4 15-1 8v15l4 18 2 4-1 3-5-12-3-18 1-14 3-14 5-16 8-20 14-28 6-14 4-14z" fill="#86106F"/>
<path transform="translate(118,436)" d="m0 0 2 1v9l-3 13-1 14v30l1 6v8h-2l-6-10-2-4-1-7v-23l3-14 6-18zm-1 4-7 21-2 8v22l2 12 5 10 1-3-2-12v-16l1-17 3-17v-8z" fill="#86106F"/>
<path transform="translate(215,450)" d="m0 0 6 1 7 6 5 9 2 5 1 12v19l-2-4-1-7-4-8v-13l-4-5v-3l-5-1-1 3-2-10z" fill="#0A010A"/>
<path transform="translate(844,477)" d="m0 0 2 4v21l-2 5-8 4-16-1-11-3-3-3v-7l3 6 9 3 12-1 8-4 5-6z" fill="#FFFDFB"/>
<path transform="translate(1244,498)" d="m0 0 9 5 8 1h12l5-1h10l7 2-2 2-28 2h-20z" fill="#FFFDFB"/>
<path transform="translate(454,180)" d="m0 0 4 5 1 2 2-1 3 7 1 11-3 10-4 6-7 6-2 1h-6l5-4 7-6 3-7 1-10-2-9-4-7z" fill="#860F70"/>
<path transform="translate(316,114)" d="m0 0h1l1 5v25l-4 16-5 13-2 3h-2l1-9 7-24 2-11z" fill="#0A010A"/>
<path transform="translate(423,400)" d="m0 0h3l1 9v29l-1 2-4-1-1-5v-21l1-12z" fill="#960A89"/>
<path transform="translate(143,284)" d="m0 0 3 1 1 2v17l-3 20-5 19-5 12-7 13-7 8v-3l8-11 7-17 5-16 2-6 2-14v-9l-1 5h-1z" fill="#86106F"/>
<path transform="translate(231,206)" d="m0 0h2v11l-2 16v21l1 18h-1l-2-12v-36l-3 15v32l1 12-2-3-2-18v-13l2-19 5-22z" fill="#86106F"/>
<path transform="translate(126,206)" d="m0 0 6 2v2l11 1 2 2-8 3-12 2h-6l-4-2-3-3 6-2 4-3z" fill="#090009"/>
<path transform="translate(516,225)" d="m0 0 1 4-4 11-10 13-10 8-13 5-9 1v-1l-11-1v-1l19-2 12-5 9-7 7-7 6-10z" fill="#881072"/>
<path transform="translate(1028,497)" d="m0 0 8 1 10 4 18 1 4 4-1 1-11 1-9-3-18-2z" fill="#FFFDFB"/>
<path transform="translate(434,540)" d="m0 0h2l-1 7-5 12-9 14-4 5h-4l2-5 12-21 6-11z" fill="#0A010A"/>
<path transform="translate(1035,283)" d="m0 0h2l3 15 4 28 2 12v7l-2-2-4-16-2-15-2-6-1-7z" fill="#FFFDFA"/>
<path transform="translate(1560,491)" d="m0 0h1l-1 10-2 5h-14l-15-1-2-2 1-1h13l11-4 5-5z" fill="#FFFDFB"/>
<path transform="translate(1313,334)" d="m0 0h9l1 6v18l-2 7-3 1h-11l1-3 8-4 4-5v-8l-4-8-1-3z" fill="#FFFEFD"/>
<path transform="translate(206,482)" d="m0 0 1 2-4 9-11 20-8 13-2-1 1-5 8-16 11-16z" fill="#0A010A"/>
<path transform="translate(1866,249)" d="m0 0h1v13l-4 50h-2l-1-4v-12l2-13 2-25z" fill="#FFFDFB"/>
<path transform="translate(294,406)" d="m0 0 3 1 1 20 3 19v6l-3-3-4-17-1-10v-13z" fill="#0A010A"/>
<path transform="translate(1472,493)" d="m0 0 4 1 6 3 8 1 13 1 3 3h-32l-2-2z" fill="#FFFEFC"/>
<path transform="translate(323,96)" d="m0 0h1l2 18v21l-2 20-7 31h-1l1-9 2-12 1-10 2-3 1-13z" fill="#86106F"/>
<path transform="translate(1503,212)" d="m0 0h10v94h-1l-1-81-5-10z" fill="#FFFFFE"/>
<path transform="translate(91,270)" d="m0 0 10 5 10 8 6 7 3 8v13l-2 3-2-19-3-5-3-2v-2h-2l-5-5-12-8z" fill="#0A010A"/>
<path transform="translate(414,130)" d="m0 0 4 5 7 8 22 22v2h2l3 5-1 2-29-29-7-10z" fill="#0A010A"/>
<path transform="translate(298,511)" d="m0 0 2 3 5 14 6 10 4 5 5 5-5-1-6-4-7-12-3-9z" fill="#0A010A"/>
<path transform="translate(1625,351)" d="m0 0 2 3 1 21v26l-2-3-2-19z" fill="#FFFDFA"/>
<path transform="translate(429,135)" d="m0 0 6 5 7 8 17 16 5 7-4-2-10-9-7-6-7-8-6-7z" fill="#0A010A"/>
<path transform="translate(1858,203)" d="m0 0 9 1 2 4v20l-1 8h-1l-1-17-3-10z" fill="#FFFDFA"/>
<path transform="translate(337,83)" d="m0 0 3 3 4 10 2 9v29l-1 5-2-2v-29l-1-10-5-13z" fill="#86106F"/>
<path transform="translate(997,190)" d="m0 0h27l1 1v9l-7-6-3-2h-4l1 2-13-1h-9v-1z" fill="#FFFDFA"/>
<path transform="translate(101,255)" d="m0 0 8 1 9 6 6 9h-3l-13-10-7-5z" fill="#0A010A"/>
<path transform="translate(315,112)" d="m0 0 3 1 2 12v17l-3 12-1-4 1-6v-25l-2 18h-1v-24z" fill="#86106F"/>
<path transform="translate(214,506)" d="m0 0h2l1 2-1 10-5 9-4 2 1-7z" fill="#86106F"/>
<path transform="translate(124,348)" d="m0 0 1 2-8 17-9 12-2 1 2-5 5-10 6-11z" fill="#0A010A"/>
<path transform="translate(383,352)" d="m0 0h1v48h-1l-1-14-2-5v-9l2-8z" fill="#0A010A"/>
<path transform="translate(338,101)" d="m0 0h1l1 6v34l-2 11h2l2-9 1 3-5 15h-2l1-14 1-10z" fill="#86106F"/>
<path transform="translate(874,394)" d="m0 0h11l-1 3-6 2h-15l-9-1v-1z" fill="#FFFDFB"/>
<path transform="translate(909,370)" d="m0 0 1 4-8 11-9 7-4 1 4-6 8-6 5-8z" fill="#FFFDFB"/>
<path transform="translate(440,74)" d="m0 0v3l-6 7-3 5-3 1-3 5v4h-2v-7l6-9 4-5z" fill="#860F6F"/>
<path transform="translate(316,307)" d="m0 0h1l-1 7-9 16-5 5 1-5 12-22z" fill="#0A010A"/>
<path transform="translate(409,121)" d="m0 0h2l5 14 7 10-2 4-8-11-3-7z" fill="#870F71"/>
<path transform="translate(1313,334)" d="m0 0h9l1 6v18l-2-4-2-11-4-6v-2z" fill="#FFFDFA"/>
<path transform="translate(2007,378)" d="m0 0h2l-1 5-9 11h-2l-1 2h-3l2-4 6-8h2l2-4z" fill="#9F0798"/>
<path transform="translate(408,314)" d="m0 0 1 4-6 9-7 4-3-1 7-8 5-2 2-5z" fill="#9F0798"/>
<path transform="translate(236,342)" d="m0 0 4 2 1 2v8l-3 5-2-2-1-3v-9z" fill="#86106F"/>
<path transform="translate(185,622)" d="m0 0 4 4 5 6 11 9-2 1-15-6-5-3 2-1 10 5-9-11z" fill="#86106F"/>
<path transform="translate(143,284)" d="m0 0 3 1 1 2v17l-1 5h-1l-1-9-1 5h-1z" fill="#870F70"/>
<path transform="translate(973,190)" d="m0 0h9l-6 8-4 9h-1v-8z" fill="#FFFEFC"/>
<path transform="translate(198,635)" d="m0 0 7 1 4-1 5 5h-4v4l-7-1v-3z" fill="#0A010A"/>
<path transform="translate(134,288)" d="m0 0h1v10l-1 5-2 5-4 8-5 3 2-5 6-12z" fill="#0A010A"/>
<path transform="translate(364,511)" d="m0 0 5 2 7 11v2h-2l-2-4h-6l-2-7z" fill="#0A010A"/>
<path transform="translate(421,259)" d="m0 0 14 1v1h-12l5 1v1l-7 2-4 4h-2v-6z" fill="#86106F"/>
<path transform="translate(1514,365)" d="m0 0h1l2 24v9l-1 5h-1l-2-31z" fill="#FFFDFA"/>
<path transform="translate(347,472)" d="m0 0 10 3 5 1-3 3-6 1-6-4-1-2z" fill="#0A010A"/>
<path transform="translate(129,341)" d="m0 0 1 2-8 18-8 13-4 3 2-5 6-9 10-21z" fill="#86106F"/>
<path transform="translate(413,257)" d="m0 0 1 2h2l1 3-2 7 2 1h-4l-1 3-2-6 1-7z" fill="#0A010A"/>
<path transform="translate(297,504)" d="m0 0 5 5 2 6-3-2 6 16 2 6-3-3-5-11-4-15z" fill="#860F6F"/>
<path transform="translate(1442,496)" d="m0 0h2l-1 7-3 4h-2l-2-6 3-4z" fill="#FFFEFC"/>
<path transform="translate(249,22)" d="m0 0 5 1 10 9 4 4-1 2-3-2v-2l-5-2-10-9z" fill="#0A010A"/>
<path transform="translate(1749,202)" d="m0 0h11l1 1v8l-8-6z" fill="#FFFEFC"/>
<path transform="translate(1091,210)" d="m0 0h9l-1 2h-2v2l-8 5-1-3z" fill="#FFFEFC"/>
<path transform="translate(85,580)" d="m0 0 4 5 7 8 7 5-3 1-5-2-4-5v-2h-2l-4-7z" fill="#0A010A"/>
<path transform="translate(997,190)" d="m0 0h18l-4 2 1 2-13-1h-9v-1z" fill="#FFFFFE"/>
<path transform="translate(514,208)" d="m0 0 3 4 1 4v13l-3-3z" fill="#0A010A"/>
<path transform="translate(331,73)" d="m0 0 4 4 2 6h-2l1 8-2-3-4-11z" fill="#870F71"/>
<path transform="translate(413,574)" d="m0 0 2 3 2 2-7 7h-3l2-6z" fill="#86106F"/>
<path transform="translate(1719,202)" d="m0 0h9l-5 4-7 4v-7z" fill="#FFFEFC"/>
<path transform="translate(1866,249)" d="m0 0h1v13l-1 11h-1l-1-6v-9z" fill="#FFFCF8"/>
<path transform="translate(304,170)" d="m0 0h1v6l3-1-2 6-2 2h-3l1-7z" fill="#86106F"/>
<path transform="translate(806,195)" d="m0 0h11l-5 4-7 2v-5z" fill="#FFFDFB"/>
<path transform="translate(1317,207)" d="m0 0h7v9l-5-4z" fill="#FFFFFE"/>
<path transform="translate(431,81)" d="m0 0 2 1-4 5-3 6-1 5-2 1v-7l6-9z" fill="#98098C"/>
<path transform="translate(244,516)" d="m0 0 7 4 4 2h-3l-2 4-4-2-1-4z" fill="#0A010A"/>
<path transform="translate(1092,514)" d="m0 0 13 3v2h-11l-2-2z" fill="#FFFCF9"/>
<path transform="translate(472,263)" d="m0 0h7l1 3-9 1v-1l-11-1v-1z" fill="#870F71"/>
<path transform="translate(301,332)" d="m0 0 2 2 2-1-2 7-7 2 2-5z" fill="#86106F"/>
<path transform="translate(1246,205)" d="m0 0h7l-2 5-5 1-1-5z" fill="#FFFEFD"/>
<path transform="translate(198,501)" d="m0 0 1 3-4 8-4 6h-2l2-5z" fill="#86106F"/>
<path transform="translate(1391,212)" d="m0 0h6l1 2v7l-6-5z" fill="#FFFFFE"/>
<path transform="translate(206,480)" d="m0 0h3l-1 6-3 4 1-7-6 9v-3z" fill="#86106F"/>
<path transform="translate(342,143)" d="m0 0 1 3-5 15h-2v-6h2v-3h2z" fill="#8C0D79"/>
<path transform="translate(1055,410)" d="m0 0h2l1 2v13l-2-3-1-3z" fill="#FFFEFC"/>
<path transform="translate(400,322)" d="m0 0v3l-1 2 5-2-4 4-4 2-3-1z" fill="#86106F"/>
<path transform="translate(1465,214)" d="m0 0h10l-5 4-3 1-1 2z" fill="#FFFFFE"/>
<path transform="translate(728,321)" d="m0 0 6 1 5 4 1 3h-3l-9-7z" fill="#0A010A"/>
<path transform="translate(1325,497)" d="m0 0h1l-1 7-5-1 1-4z" fill="#FFFDFB"/>
<path transform="translate(234,311)" d="m0 0 2 4 1 4 2-4v10h-2l-3-9z" fill="#86106F"/>
<path transform="translate(1319,478)" d="m0 0h6l1 1v6l-5-3z" fill="#FFFDFB"/>
<path transform="translate(1556,463)" d="m0 0 4 1 1 2v10l-2-4z" fill="#FFFEFC"/>
<path transform="translate(163,282)" d="m0 0h1l2 11v8h-1l-2-7z" fill="#0A010A"/>
<path transform="translate(490,249)" d="m0 0 1 2-4 6-3 1-2-2z"/>
</svg>
